# xmcd CD database file
#
# Track frame offsets:
#	150
#	116965
#	184034
#	265714
#
# Disc length: 3957 seconds
#
# Revision: 1
# Processed by: cddbd v1.5.1PL2 Copyright (c) Steve Scherf et al.
# Submitted via: jetAudio 5
#
DISCID=320f7304
DTITLE=Keith Jarret - The Koeln Concert
DYEAR=1900
DGENRE=
TTITLE0=Part 1
TTITLE1=Part 2a
TTITLE2=Part 2b
TTITLE3=Part 2c
EXTD=
EXTT0=
EXTT1=
EXTT2=
EXTT3=
PLAYORDER=
